<?xml version="1.0" encoding="utf-8"?>
<!-- Generator: Adobe Illustrator 23.0.0, SVG Export Plug-In . SVG Version: 6.00 Build 0)  -->
<svg version="1.1" id="Capa_1" xmlns="http://www.w3.org/2000/svg" xmlns:xlink="http://www.w3.org/1999/xlink" x="0px" y="0px"
	 viewBox="0 0 80 80" style="enable-background:new 0 0 80 80;" xml:space="preserve">
<style type="text/css">
	.st0{fill:#555555;}
	.st1{fill:none;stroke:#555555;stroke-width:3;stroke-miterlimit:10;}
</style>
<path class="st0" d="M-9.97,56.87c0.02,0,0.03,0,0.05,0c-0.01,0.03-0.02,0.06-0.03,0.09c-0.02-0.02-0.04-0.03-0.05-0.05
	C-9.99,56.91-9.97,56.89-9.97,56.87z"/>
<g>
	<path class="st0" d="M19.09,63.57c0,0,2.79-2.54,7.86-4.06c5.07-1.52,7.35-5.07,7.35-5.07v-6.09c0,0-2.28-2.03-3.04-6.85
		c0,0-4.18-2.16-1.39-6.72c0,0-2.79-9.89,1.01-15.72s13.19-4.06,13.19-4.06s2.28,0.25,3.3,2.28c0,0,4.56,0.25,6.09,5.07
		c0,0,1.27,8.37-1.01,11.92c0,0,2.79,4.82-1.27,6.85c0,0-0.51,5.33-3.3,6.85v6.09c0,0,1.27,3.55,7.86,5.33c0,0,5.58,1.78,7.35,3.8
		l0.25,1.52C63.34,64.71,40.01,83.22,19.09,63.57z"/>
	<circle class="st1" cx="41.27" cy="38.73" r="33.73"/>
</g>
</svg>
